<?xml version="1.0" encoding="UTF-8"?>
<svg width="24px" height="24px" viewBox="0 0 24 24" version="1.1" xmlns="http://www.w3.org/2000/svg" xmlns:xlink="http://www.w3.org/1999/xlink">
    <title>icon-google</title>
    <g id="icon-google" stroke="none" stroke-width="1" fill="none" fill-rule="evenodd">
        <path d="M12.1562496,21.6874769 C17.7460648,21.6874769 21.5312273,17.7538849 21.5312273,12.2265543 C21.5312273,11.5820246 21.4687427,11.1054556 21.3788686,10.6093936 L12.1562496,10.6093936 L12.1562496,13.9414093 L17.6562289,13.9414093 C17.4296746,15.3671871 15.9921856,18.1171577 12.1562496,18.1171577 C8.85158527,18.1171577 6.15235006,15.3788982 6.15235006,12 C6.15235006,6.55468522 12.5664049,4.05469118 16.0156078,7.38281588 L18.6523203,4.84768856 C16.9609257,3.26955207 14.7656108,2.3125231 12.1562496,2.3125231 C6.79687978,2.3125231 2.46877272,6.64063015 2.46877272,12 C2.46877272,17.3593699 6.79687978,21.6874769 12.1562496,21.6874769 Z" id="google" fill="#293C4C" fill-rule="nonzero"></path>
    </g>
</svg>