<?xml version="1.0" encoding="UTF-8"?>
<svg width="262px" height="60px" viewBox="0 0 262 60" version="1.1" xmlns="http://www.w3.org/2000/svg" xmlns:xlink="http://www.w3.org/1999/xlink">
    <title>heypage</title>
    <g id="Symbols" stroke="none" stroke-width="1" fill="none" fill-rule="evenodd">
        <g id="heypage">
            <g id="icon">
                <path d="M19.8305556,0.163888889 L0.0409722222,0.163888889 L0.0409722222,51.5840278 L40.3986111,51.5840278 L40.3986111,19.0111111 L19.8305556,0.163888889 Z M24.3375,47.4048611 L24.3375,32.4909722 L16.4298611,32.4909722 L16.4298611,47.4048611 L4.95763889,47.4048611 L4.95763889,4.30208333 L16.4298611,4.30208333 L16.4298611,21.1006944 L35.4819444,21.1006944 L35.4819444,47.4048611 L24.3375,47.4048611 Z" id="Shape" fill="#DE6752" fill-rule="nonzero"></path>
                <polygon id="Path" fill="#FFFFFF" points="24.3375 47.4048611 24.3375 32.4909722 16.4298611 32.4909722 16.4298611 47.4048611 4.95763889 47.4048611 4.95763889 4.30208333 16.4298611 4.30208333 16.4298611 21.1006944 35.4819444 21.1006944 35.4819444 47.4048611"></polygon>
            </g>
            <g id="Title" transform="translate(63.506944, 4.097222)" fill="#FFFFFF" fill-rule="nonzero">
                <polygon id="Path" points="8.97291667 11.5131944 8.97291667 0.0819444444 0.286805556 0.0819444444 0.286805556 43.3076389 8.97291667 43.3076389 8.97291667 19.1340278 17.3722222 19.1340278 17.3722222 43.3076389 26.0583333 43.3076389 26.0583333 11.5131944"></polygon>
                <polygon id="Path" points="74.0777778 35.6868056 67.1125 35.6868056 67.1125 11.5131944 58.4263889 11.5131944 58.4263889 43.3076389 74.0777778 43.3076389 74.0777778 47.1590278 58.4263889 47.1590278 58.4263889 54.7388889 82.7638889 54.7388889 82.7638889 11.5131944 74.0777778 11.5131944"></polygon>
                <path d="M87.5986111,11.5131944 L87.5986111,54.7388889 L96.2847222,54.7388889 L96.2847222,43.2666667 L111.936111,43.2666667 L111.936111,11.5131944 L87.5986111,11.5131944 Z M96.2847222,35.6868056 L96.2847222,19.1340278 L103.25,19.1340278 L103.25,35.6868056 L96.2847222,35.6868056 Z" id="Shape"></path>
                <path d="M144.468056,11.5131944 L144.468056,43.2666667 L160.119444,43.2666667 L160.119444,47.1180556 L144.55,47.1180556 L144.55,54.7388889 L160.119444,54.7388889 L164.708333,54.7388889 L168.764583,54.7388889 L168.764583,11.5131944 L144.468056,11.5131944 Z M153.154167,35.6868056 L153.154167,19.1340278 L160.119444,19.1340278 L160.119444,35.6868056 L153.154167,35.6868056 Z" id="Shape"></path>
                <path d="M30.5652778,11.5131944 L30.5652778,43.2666667 L54.20625,43.2666667 L54.20625,35.6458333 L39.2513889,35.6458333 L39.2513889,31.4256944 L54.20625,31.4256944 L54.20625,11.5131944 L30.5652778,11.5131944 Z M45.5611111,24.9520833 L39.2923611,24.9520833 L39.2923611,18.0277778 L45.5611111,18.0277778 L45.5611111,24.9520833 Z" id="Shape"></path>
                <path d="M173.394444,11.5131944 L173.394444,43.2666667 L197.035417,43.2666667 L197.035417,35.6458333 L182.080556,35.6458333 L182.080556,31.4256944 L197.035417,31.4256944 L197.035417,11.5131944 L173.394444,11.5131944 Z M188.349306,24.9520833 L182.080556,24.9520833 L182.080556,18.0277778 L188.349306,18.0277778 L188.349306,24.9520833 Z" id="Shape"></path>
                <path d="M116.402083,11.5131944 L116.402083,19.1340278 L131.356944,19.1340278 L131.356944,23.8868056 L116.402083,23.8868056 L116.402083,43.3076389 L140.043056,43.3076389 L140.043056,11.5131944 L116.402083,11.5131944 Z M125.088194,36.7930556 L125.088194,30.4013889 L131.356944,30.4013889 L131.356944,36.7930556 L125.088194,36.7930556 Z" id="Shape"></path>
            </g>
        </g>
    </g>
</svg>