<?xml version="1.0" encoding="UTF-8"?>
<svg width="24px" height="24px" viewBox="0 0 24 24" version="1.1" xmlns="http://www.w3.org/2000/svg" xmlns:xlink="http://www.w3.org/1999/xlink">
    <title>icon-facebook</title>
    <g id="icon-facebook" stroke="none" stroke-width="1" fill="none" fill-rule="evenodd">
        <path d="M10.4863317,20.7499791 L10.4863317,14.8004007 L8.0254001,14.8004007 L8.0254001,12 L10.4863317,12 L10.4863317,9.86564382 C10.4863317,7.43789998 11.9316408,6.0968845 14.1453043,6.0968845 C15.2054443,6.0968845 16.314069,6.28594044 16.314069,6.28594044 L16.314069,8.66874726 L15.0925677,8.66874726 C13.8890717,8.66874726 13.5136683,9.41562506 13.5136683,10.1816526 L13.5136683,12 L16.2003913,12 L15.7707048,14.8004007 L13.5136683,14.8004007 L13.5136683,20.7499791 L18.8749836,20.7499791 C19.9098322,20.7499791 20.7499791,19.9098322 20.7499791,18.8749836 L20.7499791,5.12501639 C20.7499791,4.09016778 19.9098322,3.25002086 18.8749836,3.25002086 L5.12501639,3.25002086 C4.09016778,3.25002086 3.25002086,4.09016778 3.25002086,5.12501639 L3.25002086,18.8749836 C3.25002086,19.9098322 4.09016778,20.7499791 5.12501639,20.7499791 L10.4863317,20.7499791 Z" id="facebook-square" fill="#293C4C" fill-rule="nonzero"></path>
    </g>
</svg>