<?xml version="1.0" standalone="no"?>
<!DOCTYPE svg PUBLIC "-//W3C//DTD SVG 20010904//EN"
 "http://www.w3.org/TR/2001/REC-SVG-20010904/DTD/svg10.dtd">
<svg version="1.0" xmlns="http://www.w3.org/2000/svg"
 width="700.000000pt" height="700.000000pt" viewBox="0 0 700.000000 700.000000"
 preserveAspectRatio="xMidYMid meet">
<metadata>
Created by potrace 1.11, written by Peter Selinger 2001-2013
</metadata>
<g transform="translate(0.000000,700.000000) scale(0.100000,-0.100000)"
fill="#000000" stroke="none">
<path d="M770 3500 l0 -3480 2730 0 2730 0 0 2203 0 2202 -1391 1278 -1392
1277 -1338 0 -1339 0 0 -3480z m2220 1785 l0 -1135 1285 0 1285 0 0 -1780 0
-1780 -750 0 -750 0 0 1005 0 1005 -535 0 -535 0 0 -1005 0 -1005 -775 0 -775
0 0 2915 0 2915 775 0 775 0 0 -1135z"/>
</g>
</svg>
